# xmcd
#
# Track frame offsets:
#	150
#	12464
#	25188
#	37875
#	55410
#	69390
#	96021
#	106716
#	124905
#	135837
#	144483
#	167781
#
# Disc length: 2404 seconds
#
# Revision: 5
# Processed by: cddbd v1.5.2PL0 Copyright (c) Steve Scherf et al.
# Submitted via: EasyCDDAExtractor 15.2.0.1
#
DISCID=9709620c
DTITLE=Commander Cody and His Lost Planet Airmen - Hot Licks, Cold Steel and Tru
DTITLE=cker's Favorites
DYEAR=1972
DGENRE=Country
TTITLE0=Truck Stop Rock
TTITLE1=Truck Drivin' Man
TTITLE2=Rip It Up
TTITLE3=Cravin' Your Love
TTITLE4=It Should've Been Me
TTITLE5=Watch My .38
TTITLE6=Semi-Truck
TTITLE7=Kentucky Hills of Tennessee
TTITLE8=Looking at the World Through a Windshield
TTITLE9=Diggy Liggy Lo
TTITLE10=Mama Hated Diesels
TTITLE11=Tutti Frutti
EXTD=YEAR: 1972 ID3G: 2
EXTT0=
EXTT1=
EXTT2=
EXTT3=
EXTT4=
EXTT5=
EXTT6=
EXTT7=
EXTT8=
EXTT9=
EXTT10=
EXTT11=
PLAYORDER=
